<svg width="199" height="33" viewBox="0 0 199 33" fill="none" xmlns="http://www.w3.org/2000/svg">
<path d="M35.6904 0.570312H52.7804V5.92031H40.6404V13.1903H51.4604V18.5403H40.6404V26.6903H52.7804V32.0403H35.6904V0.570312Z" fill="#0096A0"/>
<path d="M62.8896 0.570312H71.9196C76.6496 0.570312 81.4296 3.42031 81.4296 9.60031C81.4296 13.9403 79.0197 17.0903 75.1597 18.1903L82.5696 32.0403H76.9596L69.8196 18.7603H67.8496V32.0403H62.8997V0.570312H62.8896ZM67.8396 5.92031V13.6803H72.6197C74.8097 13.6803 76.4797 12.1503 76.4797 9.82031C76.4797 7.59031 74.8997 5.92031 72.6197 5.92031H67.8396Z" fill="#0096A0"/>
<path d="M116.49 0.570312H121.66L125.87 32.0303H120.92L117.93 9.90031L109.96 32.0303H105.27L97.2104 9.90031L94.3204 32.0303H89.1504L93.3604 0.570312H98.5304L107.47 24.4903L116.49 0.570312Z" fill="#0096A0"/>
<path d="M160.41 32.0303H155.2L152.48 25.1903H138.81L136.14 32.0303H130.79L143.06 0.570312H148.1L160.41 32.0303ZM140.87 19.9403H150.42L145.64 7.71031L140.87 19.9403Z" fill="#0096A0"/>
<path d="M15.74 32.6C21.47 32.6 25.85 29.76 27.8 27.24L26.17 22.35C24.35 25 20.86 27.24 16.06 27.24C9.59 27.24 5.02 23.05 5.02 16.3C5.02 9.5 9.58 5.36 16.06 5.36C20.48 5.36 24.02 7.55 25.89 10.16L27.61 5.18C25.71 2.7 21.38 0 15.74 0C7.31 0 0 6.52 0 16.3C0 26.03 7.31 32.6 15.74 32.6Z" fill="#0096A0"/>
<path d="M179.8 27.48C176.26 27.48 173.19 26.13 170.95 23.06C172.3 22.04 174.86 20.55 178.31 20.55C181.99 20.55 185.25 21.9 187.81 23.81C185.71 26.27 182.92 27.48 179.8 27.48ZM194.33 22.73C195.21 20.77 195.68 18.63 195.68 16.3C195.68 6.94 188.32 0 179.75 0C171.13 0 163.78 7.03 163.78 16.35C163.78 17.37 163.92 18.91 164.2 20.17C165.88 18.63 167.41 17.52 168.9 16.58C168.57 10.29 173.37 5.36 179.8 5.36C185.85 5.36 190.65 9.88 190.65 16.3C190.65 17.42 190.51 18.49 190.18 19.61C187.01 17.28 183.1 15.65 178.3 15.61C172.39 15.56 168.38 18.5 164.75 21.76C167.17 28.47 172.9 32.61 179.79 32.61C184.35 32.61 188.59 30.61 191.67 27.02C192.6 27.9 193.91 29.12 195.02 30.33L198.42 26.51C196.98 25.06 195.3 23.56 194.33 22.73Z" fill="#0096A0"/>
</svg>
