<?xml version="1.0" encoding="UTF-8"?> <svg xmlns="http://www.w3.org/2000/svg" width="146" height="40" viewBox="0 0 146 40" fill="none"><path d="M52.8278 30.125C52.8278 31.1375 52.6148 31.9159 52.1944 32.4667C51.774 33.0175 51.1414 33.2905 50.3079 33.2905C48.7851 33.2905 48.0251 32.2758 48.0278 30.2465V18.4206H39.4329V30.8945C39.4329 33.7603 40.0229 35.9254 41.2028 37.3899C42.3827 38.8543 44.1044 39.5863 46.3681 39.5858C47.3255 39.5858 48.1655 39.4489 48.8791 39.1662C49.5761 38.8958 50.2285 38.522 50.8142 38.0573C51.386 37.5964 52.0332 36.8796 52.742 35.8946H52.823V39.0836H61.4227V18.4247H52.8278V30.125Z" fill="#1D1D1B"></path><path d="M76.8758 17.9214C74.4307 17.9214 72.2796 18.369 70.4226 19.2644C68.5596 20.1554 67.1372 21.4513 66.1296 23.1345C65.122 24.8177 64.6279 26.8532 64.6279 29.2159C64.6279 31.1923 65.0985 32.9762 66.0397 34.5676C66.9809 36.1589 68.3104 37.3915 70.0281 38.2652C71.742 39.1473 73.6844 39.5871 75.8673 39.5871C77.4063 39.5871 78.7833 39.4907 79.9651 39.2842C81.1469 39.0776 82.0103 38.8233 82.5619 38.4993V32.1424C81.2196 32.91 79.6969 33.3062 78.1507 33.2902C76.6571 33.2902 75.4842 32.8974 74.6321 32.1117C73.78 31.326 73.3528 30.219 73.3507 28.7907C73.3507 27.3376 73.7848 26.2076 74.6523 25.409C75.5198 24.6103 76.7948 24.2183 78.4747 24.2183C79.2356 24.2298 79.9903 24.3574 80.7127 24.5965C81.5227 24.8582 82.1391 25.1546 82.566 25.4875V18.7913C82.2622 18.5637 81.5672 18.3572 80.4997 18.1854C79.301 17.998 78.0889 17.9097 76.8758 17.9214Z" fill="#1D1D1B"></path><path d="M35.5354 8.50087H26.9406V39.0854H35.5354V8.50087Z" fill="#1D1D1B"></path><path d="M96.2493 12.0275L87.7791 12.017V18.4249H84.5286V24.3751H87.7791V31.985C87.7791 34.4149 88.4541 36.2903 89.8041 37.6112C91.1536 38.9339 93.0271 39.5876 95.4239 39.5876C96.6769 39.5876 97.7445 39.5066 98.6331 39.3397C99.5216 39.1728 100.155 38.989 100.547 38.8027V32.8525C99.8695 33.1327 99.1451 33.2824 98.4119 33.2939C96.9734 33.2939 96.2493 32.3843 96.2493 30.5731V24.3751H100.547V18.4249H96.2493V12.0275Z" fill="#1D1D1B"></path><path d="M116.387 30.125C116.387 31.1375 116.173 31.9159 115.754 32.4667C115.334 33.0175 114.702 33.2905 113.867 33.2905C112.345 33.2905 111.585 32.2758 111.587 30.2465V18.4206H102.992V30.8945C102.992 33.7603 103.582 35.9254 104.762 37.3899C105.942 38.8543 107.664 39.5863 109.928 39.5858C110.885 39.5858 111.725 39.4489 112.438 39.1662C113.137 38.8968 113.791 38.5235 114.378 38.0589C114.95 37.598 115.598 36.8812 116.307 35.8962H116.388V39.0852H124.982V18.4247H116.387V30.125Z" fill="#1D1D1B"></path><path d="M144.51 28.4935C143.594 27.5215 142.086 26.7293 139.974 26.1097C138.887 25.7727 138.157 25.4836 137.799 25.2422C137.441 25.0008 137.247 24.6841 137.247 24.2985C137.247 23.9616 137.42 23.7 137.758 23.5072C138.097 23.3144 138.542 23.2245 139.107 23.2245C139.795 23.2245 140.646 23.3484 141.649 23.589C142.6 23.8118 143.53 24.1162 144.429 24.4986V18.7104C142.411 18.1882 140.502 17.9266 138.7 17.9255C135.622 17.9255 133.232 18.5479 131.53 19.7926C129.828 21.0372 128.977 22.7285 128.976 24.8664C128.976 26.3956 129.394 27.64 130.229 28.5996C131.063 29.5497 132.392 30.3209 134.224 30.8992C135.877 31.4508 136.903 31.8428 137.289 32.0777C137.676 32.3126 137.875 32.6147 137.875 32.9728C137.875 33.8468 137.033 34.2882 135.354 34.2882C133.645 34.2882 131.519 33.7234 128.976 32.5937V38.6265C129.836 38.8954 130.953 39.1222 132.317 39.3085C133.457 39.4812 134.607 39.5754 135.76 39.5904C138.949 39.5904 141.43 38.9505 143.212 37.6626C144.994 36.3747 145.885 34.5709 145.885 32.2284C145.887 30.704 145.43 29.4639 144.51 28.4935Z" fill="#1D1D1B"></path><path d="M13.1593 1.41083C10.0676 2.88502 8.01992 5.6309 7.54445 9.01343L7.69673 9.0191C13.8332 9.32447 15.3107 12.963 18.2177 14.4031V11.3632C18.2177 10.3167 18.5029 9.48646 19.0739 8.86439C20.4671 7.38696 23.1733 7.94343 24.8451 8.52743V0.624325C21.2512 -0.380067 16.5313 -0.210779 13.1593 1.41083Z" fill="#1D1D1B"></path><path d="M7.42691 19.0886V39.0752H18.2176V25.2413C12.5955 24.2693 11.7498 19.4661 7.96312 19.0854C7.78451 19.0747 7.60538 19.0758 7.42691 19.0886Z" fill="#1D1D1B"></path><path d="M24.8004 21.1893C24.8814 21.1893 24.9551 21.1966 25.0329 21.1983C25.0418 21.1812 25.041 14.775 25.0442 14.7523C23.5651 16.4979 22.1347 17.0665 19.7436 17.0049C17.6198 16.8219 15.8394 14.8179 13.6687 13.1169C17.2521 15.9997 20.0068 20.8305 24.8004 21.1893Z" fill="url(#paint0_linear_4119_1471)"></path><path d="M9.61634 17.0324C7.02436 14.374 3.84838 13.3583 0.414814 15.1216V15.1176L0.409954 15.1216L0.441544 22.2212C3.18985 18.4434 7.48363 15.9899 11.0897 18.5309C10.85 18.2787 10.6089 18.0287 10.3664 17.7808V17.7752C10.1177 17.5224 9.86825 17.2738 9.61634 17.0324Z" fill="url(#paint1_linear_4119_1471)"></path><path d="M24.9794 21.2018C24.9195 21.2018 24.8596 21.1945 24.8004 21.1896C20.0069 20.8308 17.2521 16 13.6719 13.1221C13.4289 12.9272 13.1819 12.7414 12.9308 12.5648C8.34056 8.69225 2.12467 11.7824 0.417202 15.1195V15.1236C3.85077 13.3602 7.02918 14.376 9.61873 17.0344C9.87064 17.2774 10.1201 17.5244 10.3688 17.7771C13.0256 20.4866 15.5365 23.7265 19.6562 23.6002C22.1072 23.4212 23.7628 22.6962 25.0515 21.1994L24.9794 21.2018Z" fill="url(#paint2_linear_4119_1471)"></path><defs><linearGradient id="paint0_linear_4119_1471" x1="13.6719" y1="17.1588" x2="25.0442" y2="17.1588" gradientUnits="userSpaceOnUse"><stop stop-color="#CBE9FC"></stop><stop offset="1" stop-color="#99D7F7"></stop></linearGradient><linearGradient id="paint1_linear_4119_1471" x1="0.412384" y1="18.232" x2="11.0922" y2="18.232" gradientUnits="userSpaceOnUse"><stop stop-color="#99D7F7"></stop><stop offset="1" stop-color="#CBE9FC"></stop></linearGradient><linearGradient id="paint2_linear_4119_1471" x1="0.414772" y1="17.1826" x2="25.0491" y2="17.1826" gradientUnits="userSpaceOnUse"><stop stop-color="#99D7F7"></stop><stop offset="0.32" stop-color="#00A3E5"></stop><stop offset="0.68" stop-color="#00A2E5"></stop><stop offset="1" stop-color="#CBE9FC"></stop></linearGradient></defs></svg> 